<svg width="210" height="268" viewBox="0 0 210 268" fill="none" xmlns="http://www.w3.org/2000/svg">
<path d="M95.5964 150.308V106.562H121.583V115.047H105.273V123.687H120.647V132.172H105.273V141.824H121.583V150.308H95.5964Z" fill="#00AEEF"/>
<path d="M147.101 142.446C150.145 142.446 152.72 142.135 155.061 141.045L156.856 149.218C153.657 150.619 150.691 150.93 147.101 150.93C134.771 150.93 125.563 141.278 125.563 128.435C125.563 115.591 134.771 105.939 147.101 105.939C159.431 105.939 153.657 106.329 156.856 107.73L155.061 115.825C152.876 114.969 150.145 114.424 147.101 114.424C140.468 114.424 135.24 120.495 135.24 128.435C135.24 136.375 140.468 142.446 147.101 142.446Z" fill="#00AEEF"/>
<path d="M162.085 139.955C165.128 140.967 167.938 141.745 171.605 141.745C175.273 141.745 176.912 140.656 176.912 138.009C176.912 135.363 175.273 134.351 170.123 132.171C163.724 129.213 159.978 125.399 159.978 119.406C159.978 110.376 167.235 105.939 175.039 105.939C182.843 105.939 182.765 107.029 186.355 108.664L184.56 117.07C181.438 115.981 178.707 115.202 175.039 115.202C171.371 115.202 170.279 116.448 170.279 118.783C170.279 121.118 172.152 122.675 176.756 124.621C183.389 127.579 187.213 131.549 187.213 137.153C187.213 146.649 179.565 150.93 171.527 150.93C163.489 150.93 163.802 149.841 160.29 148.206L162.007 139.877L162.085 139.955Z" fill="#00AEEF"/>
<path d="M144.292 58.068C144.292 58.068 142.107 59.1577 140 58.8463C140.624 56.5112 140.936 55.1101 140.936 55.0322C141.795 55.5771 143.356 56.8225 144.292 58.068Z" fill="#F7941D"/>
<path d="M101.996 61.2595C105.819 59.2357 110.58 56.9005 114.013 55.5772C129.309 49.4279 138.127 53.3977 140.39 54.6431C140.546 54.721 140.624 54.7988 140.78 54.8767C140.936 54.9545 141.014 55.0323 141.014 55.0323C141.014 55.0323 140.78 56.5113 140.078 58.8465C138.283 64.6066 125.875 78.0727 112.765 90.4491C110.736 92.3951 106.288 95.5865 106.288 95.5865C106.288 95.5865 106.522 95.1973 106.6 95.1195C106.678 95.0416 113.857 84.4555 105.273 66.7082C104.649 65.3849 103.322 63.2055 102.074 61.3373L101.996 61.2595Z" fill="#00ADEE"/>
<path d="M106.21 95.5858C112.531 86.0895 109.253 71.9227 101.996 61.2588C99.6544 62.4264 92.4749 66.474 92.3969 66.474C101.839 73.8687 108.473 84.844 106.21 95.508V95.5858Z" fill="#F7941D"/>
<path d="M87.7926 63.283C87.0123 62.816 86.1538 62.2711 85.2174 61.7262C79.4426 58.3013 70.7023 53.3974 62.5864 48.8828C51.583 42.8113 41.5942 37.4404 41.5942 37.4404C41.5942 37.4404 40.6577 53.3196 47.369 64.6063C50.8027 70.4442 55.485 74.414 61.1037 77.4497C63.835 78.9287 66.9565 80.1741 70.1561 81.186C71.6388 80.0184 73.8239 78.3838 76.3991 76.6713C81.6276 73.0907 85.9978 70.5999 92.3969 66.4744C90.9922 65.3847 89.2754 64.1392 87.7146 63.2052L87.7926 63.283Z" fill="#EC008C"/>
<path d="M76.3991 76.6708C73.9019 78.3833 70.2341 81.1855 70.2341 81.1855C74.136 82.4309 78.3501 83.5207 82.8763 84.5326C97.8595 87.8018 104.805 94.1068 106.132 95.4301C106.132 95.4301 106.21 95.5079 106.288 95.5857C106.288 95.5079 106.288 95.4301 106.366 95.3522C108.551 84.7661 101.839 73.9465 92.4749 66.5518C92.1628 66.7074 81.5496 73.1681 76.3991 76.6708Z" fill="#92278F"/>
<path d="M102.074 61.3369C101.527 60.5585 100.825 59.6244 100.279 58.846C98.796 56.6665 66.1761 18.5254 66.1761 18.5254C66.1761 18.5254 59.699 33.0813 62.0401 46.0026C62.1962 47.0145 62.4303 48.0264 62.7425 48.9605C70.8584 53.4751 79.5986 58.379 85.3734 61.8039C86.3099 62.3488 87.1683 62.8937 87.9487 63.3607C89.4314 64.2948 92.4749 66.5521 92.5529 66.63C92.631 66.63 99.8105 62.5823 102.152 61.4147L102.074 61.3369Z" fill="#8DC63F"/>
<path d="M106.21 95.5861C102.62 91.5384 95.8305 88.1135 89.4314 86.1675C83.2664 84.2216 75.9309 82.8983 70.1561 81.2637C69.2196 82.0421 58.3724 89.2811 55.2508 91.0714C53.0658 92.3168 51.6611 93.3287 47.291 94.185C43.0769 94.9634 17.7146 97.1428 16.7001 97.6877C14.9052 98.6996 32.6979 98.3104 33.4783 99.8672C34.2586 101.424 15.9978 110.609 17.6366 110.609C19.1973 110.609 44.4816 100.412 49.7882 99.2445C58.3724 97.3764 92.0847 104.849 106.21 95.6639V95.5861Z" fill="#00ADEE"/>
<path d="M132.274 181.755C135.63 181.755 136.878 183.545 136.878 185.258C136.878 186.97 135.708 188.683 132.274 188.683C128.841 188.683 127.748 186.737 127.748 185.258C127.748 183.779 129.153 181.755 132.274 181.755ZM128.138 191.874H136.41V216.393H128.138V191.874Z" fill="#EC008C"/>
<path d="M105.819 203.16L103.946 205.34V216.393H95.5964V181.599H103.946V194.286H104.259C104.259 194.364 113.935 181.599 113.935 181.599H124.08V181.832C124.158 181.832 111.36 196.699 111.36 196.699L126.734 216.315H115.964L105.819 203.082V203.16Z" fill="#EC008C"/>
<path d="M157.168 193.119V180.12H165.518V216.393H157.168V214.525H156.856C155.373 215.848 153.032 216.86 150.145 216.86C143.434 216.86 138.127 211.178 138.127 203.939C138.127 196.7 143.59 191.018 150.613 191.018C157.637 191.018 155.373 191.796 157.09 193.041L157.168 193.119ZM157.168 207.675V199.113C155.764 198.334 153.969 197.867 151.706 197.867C149.443 197.867 146.555 200.358 146.555 204.017C146.555 207.675 148.896 210.166 151.706 210.166C154.515 210.166 155.92 209.543 157.168 207.675Z" fill="#EC008C"/>
<path d="M169.264 208.687C171.449 209.388 173.634 209.855 175.897 209.855C178.161 209.855 179.019 209.543 179.019 208.531C179.019 207.519 178.473 207.052 175.663 206.508C170.747 205.651 167.86 203.238 167.86 199.191C167.86 195.143 172.776 191.018 178.161 191.018C183.545 191.018 183.623 191.64 186.042 192.574L185.028 198.957C182.921 198.334 180.814 197.79 178.707 197.79C176.6 197.79 176.132 198.257 176.132 199.113C176.132 199.969 176.366 200.592 179.565 201.137C184.326 201.993 187.213 203.861 187.213 208.22C187.213 212.579 181.906 216.627 176.444 216.627C170.981 216.627 170.747 216.004 168.094 214.992L169.186 208.609L169.264 208.687Z" fill="#EC008C"/>
<path d="M87.5585 157.936V130.848H67.971V157.936H44.9498L67.1906 106.173H47.5251L22.4749 163.151V173.971H67.971V210.088H87.5585V173.971V157.936Z" fill="#7FB539"/>
<path d="M187.369 157.936H95.5964V173.97H187.369V157.936Z" fill="#7FB539"/>
<path d="M22.3188 224.332H25.9086C28.796 224.332 30.4348 225.733 30.4348 227.368C30.4348 229.002 29.8885 229.236 28.9521 229.703C30.2787 230.17 31.0591 231.26 31.0591 232.505C31.0591 233.751 29.4203 235.541 26.5329 235.541H22.3188V224.41V224.332ZM25.0502 226.512V228.847H26.2988C27.3133 228.847 27.7815 228.38 27.7815 227.601C27.7815 226.823 27.2352 226.512 26.1427 226.512H25.0502ZM25.0502 230.793V233.284H26.767C27.7815 233.284 28.4058 232.894 28.4058 232.194C28.4058 231.493 27.8595 230.793 26.9231 230.793H25.0502Z" fill="#00AEEF"/>
<path d="M40.2676 231.416V232.35H34.8049C34.961 233.128 35.5853 233.439 36.912 233.439C37.7704 233.439 38.5508 233.284 39.2531 232.972L39.7213 234.84C38.8629 235.307 37.9265 235.541 36.912 235.541C33.8685 235.541 32.0736 233.984 32.0736 231.416C32.0736 228.847 33.5563 227.29 36.2096 227.29C38.5508 227.29 40.2676 228.691 40.2676 231.338V231.416ZM34.8049 230.715H37.5363C37.4582 229.781 36.912 229.547 36.2877 229.547C35.6634 229.547 34.961 229.937 34.7269 230.715H34.8049Z" fill="#00AEEF"/>
<path d="M45.34 235.619C42.7648 235.619 41.7503 234.607 41.7503 232.505V223.865H44.4036V232.116C44.4036 232.817 44.7157 233.206 45.4961 233.206L45.34 235.541V235.619Z" fill="#00AEEF"/>
<path d="M48.3055 224.254C49.398 224.254 49.7882 224.877 49.7882 225.344C49.7882 225.811 49.398 226.433 48.3055 226.433C47.2129 226.433 46.8228 225.811 46.8228 225.344C46.8228 224.877 47.291 224.254 48.3055 224.254ZM46.9788 227.523H49.6321V235.463H46.9788V227.523Z" fill="#00AEEF"/>
<path d="M59.4649 231.416V232.35H54.0023C54.1583 233.128 54.7826 233.439 56.1093 233.439C56.9677 233.439 57.7481 233.284 58.4504 232.972L58.9187 234.84C58.0602 235.307 57.1238 235.541 56.1093 235.541C53.0658 235.541 51.2709 233.984 51.2709 231.416C51.2709 228.847 52.7537 227.29 55.4069 227.29C57.7481 227.29 59.4649 228.691 59.4649 231.338V231.416ZM54.0023 230.715H56.7336C56.6556 229.781 56.1093 229.547 55.485 229.547C54.8607 229.547 54.1583 229.937 53.9242 230.715H54.0023Z" fill="#00AEEF"/>
<path d="M64.2252 232.194L64.3813 232.895H64.4593L64.6154 232.194L66.0981 227.602H68.9075L65.864 235.541H63.2107L60.1672 227.602H62.8986L64.3813 232.194H64.2252Z" fill="#00AEEF"/>
<path d="M77.5697 231.416V232.35H72.1071C72.2631 233.128 72.8874 233.439 74.2141 233.439C75.0725 233.439 75.8529 233.284 76.5552 232.972L77.0234 234.84C76.165 235.307 75.2286 235.541 74.2141 235.541C71.1706 235.541 69.3757 233.984 69.3757 231.416C69.3757 228.847 70.8584 227.29 73.5117 227.29C75.8529 227.29 77.5697 228.691 77.5697 231.338V231.416ZM72.1071 230.715H74.8384C74.7603 229.781 74.2141 229.547 73.5898 229.547C72.9655 229.547 72.2631 229.937 72.029 230.715H72.1071Z" fill="#00AEEF"/>
<path d="M79.9889 232.816C80.7692 232.816 81.3935 233.517 81.3935 234.218C81.3935 234.918 80.7692 235.619 79.9889 235.619C79.2085 235.619 78.5842 234.918 78.5842 234.218C78.5842 233.517 79.2085 232.816 79.9889 232.816Z" fill="#00AEEF"/>
<path d="M92.3969 233.361H88.573L87.8707 235.463H85.1393L89.1973 224.332H91.7726L95.8305 235.463H93.0212L92.3188 233.361H92.3969ZM89.3534 231.26H91.7726L90.9922 228.769L90.68 227.368H90.602L90.2898 228.769L89.4314 231.26H89.3534Z" fill="#00AEEF"/>
<path d="M100.981 233.517C101.527 233.517 102.074 233.439 102.542 233.128L103.01 235.229C102.308 235.541 101.683 235.696 100.981 235.696C98.4838 235.696 96.4548 233.906 96.4548 231.571C96.4548 229.236 98.4058 227.445 100.981 227.445C103.556 227.445 102.386 227.445 103.01 227.835L102.542 229.936C102.152 229.78 101.683 229.625 100.981 229.625C99.8885 229.625 98.9521 230.403 98.9521 231.571C98.9521 232.738 99.8105 233.517 100.981 233.517Z" fill="#00AEEF"/>
<path d="M104.181 223.865H106.834V228.38H106.912C107.458 227.835 108.317 227.368 109.487 227.368C110.658 227.368 112.375 228.535 112.375 230.87V235.463H109.721V231.026C109.721 229.936 109.097 229.469 108.317 229.469C107.536 229.469 107.146 229.781 106.834 230.092V235.385H104.181V223.787V223.865Z" fill="#00AEEF"/>
<path d="M115.808 224.254C116.901 224.254 117.291 224.877 117.291 225.344C117.291 225.811 116.901 226.433 115.808 226.433C114.716 226.433 114.326 225.811 114.326 225.344C114.326 224.877 114.794 224.254 115.808 224.254ZM114.482 227.523H117.135V235.463H114.482V227.523Z" fill="#00AEEF"/>
<path d="M127.046 231.416V232.35H121.583C121.739 233.128 122.363 233.439 123.69 233.439C124.549 233.439 125.329 233.284 126.031 232.972L126.499 234.84C125.641 235.307 124.705 235.541 123.69 235.541C120.647 235.541 118.852 233.984 118.852 231.416C118.852 228.847 120.334 227.29 122.988 227.29C125.329 227.29 127.046 228.691 127.046 231.338V231.416ZM121.583 230.715H124.314C124.236 229.781 123.69 229.547 123.066 229.547C122.441 229.547 121.739 229.937 121.505 230.715H121.583Z" fill="#00AEEF"/>
<path d="M131.806 232.194L131.962 232.895H132.04L132.196 232.194L133.679 227.602H136.488L133.445 235.541H130.792L127.748 227.602H130.479L131.962 232.194H131.806Z" fill="#00AEEF"/>
<path d="M145.072 231.416V232.35H139.61C139.766 233.128 140.39 233.439 141.717 233.439C142.575 233.439 143.356 233.284 144.058 232.972L144.526 234.84C143.668 235.307 142.731 235.541 141.717 235.541C138.673 235.541 136.878 233.984 136.878 231.416C136.878 228.847 138.361 227.29 141.014 227.29C143.356 227.29 145.072 228.691 145.072 231.338V231.416ZM139.61 230.715H142.341C142.263 229.781 141.717 229.547 141.093 229.547C140.468 229.547 139.766 229.937 139.532 230.715H139.61Z" fill="#00AEEF"/>
<path d="M147.57 232.816C148.35 232.816 148.974 233.517 148.974 234.218C148.974 234.918 148.35 235.619 147.57 235.619C146.789 235.619 146.165 234.918 146.165 234.218C146.165 233.517 146.789 232.816 147.57 232.816Z" fill="#00AEEF"/>
<path d="M153.813 232.817C154.671 233.05 155.451 233.284 156.466 233.284C157.48 233.284 157.949 233.05 157.949 232.35C157.949 231.649 157.48 231.416 156.076 230.871C154.281 230.093 153.266 229.158 153.266 227.602C153.266 225.267 155.295 224.177 157.402 224.177C159.509 224.177 159.509 224.41 160.524 224.877L160.056 226.979C159.197 226.745 158.417 226.512 157.402 226.512C156.388 226.512 156.076 226.823 156.076 227.446C156.076 228.069 156.622 228.458 157.871 228.925C159.666 229.703 160.758 230.715 160.758 232.116C160.758 234.529 158.651 235.619 156.466 235.619C154.281 235.619 154.359 235.386 153.344 234.919L153.813 232.817Z" fill="#00AEEF"/>
<path d="M166.221 227.368C168.874 227.368 170.747 229.158 170.747 231.494C170.747 233.829 168.874 235.619 166.221 235.619C163.567 235.619 161.695 233.829 161.695 231.494C161.695 229.158 163.567 227.368 166.221 227.368ZM166.221 233.517C167.313 233.517 168.016 232.739 168.016 231.571C168.016 230.404 167.313 229.625 166.221 229.625C165.128 229.625 164.426 230.404 164.426 231.571C164.426 232.739 165.128 233.517 166.221 233.517Z" fill="#00AEEF"/>
<path d="M177.692 228.069H177.77V227.524H180.424V235.463H177.77V234.763H177.692C177.224 235.23 176.444 235.619 175.429 235.619C173.244 235.619 171.605 233.829 171.605 231.494C171.605 229.158 173.322 227.368 175.585 227.368C177.848 227.368 177.224 227.602 177.692 228.069ZM177.77 232.506V230.015C177.302 229.703 176.678 229.548 175.897 229.548C175.117 229.548 174.259 230.326 174.259 231.494C174.259 232.661 175.039 233.44 175.897 233.44C176.756 233.44 177.38 233.206 177.77 232.428V232.506Z" fill="#00AEEF"/>
<path d="M182.453 227.524H185.106V228.38H185.184C185.652 227.757 186.433 227.368 187.291 227.368H187.525V229.859H187.135C186.355 229.859 185.652 230.093 185.106 230.482V235.463H182.453V227.524Z" fill="#00AEEF"/>
<path d="M188.071 232.816C188.852 232.816 189.476 233.517 189.476 234.218C189.476 234.918 188.852 235.619 188.071 235.619C187.291 235.619 186.667 234.918 186.667 234.218C186.667 233.517 187.291 232.816 188.071 232.816Z" fill="#00AEEF"/>
<path d="M22.2408 247.528V240.056H27.0791V241.535H24.0357V243.014H26.845V244.493H24.0357V246.127H27.0791V247.606H22.2408V247.528Z" fill="#7FB539"/>
<path d="M28.0936 240.056H30.981C32.932 240.056 34.0245 241.068 34.0245 242.547C34.0245 244.025 32.932 245.037 30.981 245.037H29.8885V247.528H28.0936V240.056ZM29.8885 241.457V243.481H30.981C31.8394 243.481 32.2296 243.091 32.2296 242.469C32.2296 241.846 31.8394 241.457 30.981 241.457H29.8885Z" fill="#7FB539"/>
<path d="M34.9609 240.056H36.7558V247.528H34.9609V240.056Z" fill="#7FB539"/>
<path d="M38.3166 245.739C38.8629 245.894 39.4091 246.05 40.1115 246.05C40.8138 246.05 41.126 245.894 41.126 245.427C41.126 244.96 40.8138 244.805 39.8774 244.415C38.7068 243.948 38.0045 243.248 38.0045 242.236C38.0045 240.679 39.3311 239.979 40.8138 239.979C42.2965 239.979 42.2185 240.134 42.9208 240.446L42.6087 241.847C42.0624 241.691 41.5162 241.535 40.8138 241.535C40.1115 241.535 39.9554 241.769 39.9554 242.158C39.9554 242.547 40.3456 242.781 41.126 243.17C42.3746 243.637 43.0769 244.338 43.0769 245.349C43.0769 246.984 41.6722 247.685 40.1895 247.685C38.7068 247.685 38.7848 247.529 38.0825 247.218L38.3946 245.816L38.3166 245.739Z" fill="#7FB539"/>
<path d="M47.7592 246.128C48.3054 246.128 48.7737 246.128 49.2419 245.894L49.554 247.295C48.9297 247.529 48.3835 247.607 47.7592 247.607C45.4961 247.607 43.7792 245.972 43.7792 243.793C43.7792 241.613 45.4961 239.979 47.7592 239.979C50.0223 239.979 49.0078 239.979 49.554 240.29L49.2419 241.691C48.8517 241.535 48.3054 241.457 47.7592 241.457C46.5106 241.457 45.5741 242.469 45.5741 243.87C45.5741 245.272 46.5106 246.283 47.7592 246.283V246.128Z" fill="#7FB539"/>
<path d="M53.8461 239.9C55.9532 239.9 57.748 241.535 57.748 243.715C57.748 245.894 56.0312 247.529 53.8461 247.529C51.6611 247.529 50.0223 245.894 50.0223 243.715C50.0223 241.535 51.7391 239.9 53.8461 239.9ZM53.8461 246.128C55.1728 246.128 55.9532 245.116 55.9532 243.715C55.9532 242.313 55.1728 241.301 53.8461 241.301C52.5195 241.301 51.8172 242.313 51.8172 243.715C51.8172 245.116 52.5975 246.128 53.8461 246.128Z" fill="#7FB539"/>
<path d="M58.6845 240.056H61.5719C63.5229 240.056 64.6154 241.068 64.6154 242.547C64.6154 244.025 63.5229 245.037 61.5719 245.037H60.4794V247.528H58.6845V240.056ZM60.4794 241.457V243.481H61.5719C62.4303 243.481 62.8205 243.091 62.8205 242.469C62.8205 241.846 62.4303 241.457 61.5719 241.457H60.4794Z" fill="#7FB539"/>
<path d="M69.2196 246.05H66.6444L66.1761 247.451H64.3032L67.0345 239.979H68.7514L71.4827 247.451H69.6098L69.1416 246.05H69.2196ZM67.1126 244.649H68.7514L68.2051 243.014L67.971 242.08L67.7369 243.014L67.1906 244.649H67.1126Z" fill="#7FB539"/>
<path d="M72.2631 240.056H74.0579V246.049H76.8673V247.528H72.2631V240.056Z" fill="#7FB539"/>
<path d="M83.3444 246.128C83.8907 246.128 84.3589 246.128 84.8272 245.894L85.1393 247.295C84.515 247.529 83.9687 247.607 83.3444 247.607C81.0813 247.607 79.3645 245.972 79.3645 243.793C79.3645 241.613 81.0813 239.979 83.3444 239.979C85.6075 239.979 84.593 239.979 85.1393 240.29L84.8272 241.691C84.437 241.535 83.8907 241.457 83.3444 241.457C82.0958 241.457 81.1594 242.469 81.1594 243.87C81.1594 245.272 82.0958 246.283 83.3444 246.283V246.128Z" fill="#7FB539"/>
<path d="M90.524 244.415H87.7146V247.528H85.9197V240.056H87.7146V243.014H90.524V240.056H92.3189V247.528H90.524V244.415Z" fill="#7FB539"/>
<path d="M93.7235 240.056H95.5184V247.528H93.7235V240.056Z" fill="#7FB539"/>
<path d="M96.923 240.056H98.7179V246.049H101.527V247.528H96.923V240.056Z" fill="#7FB539"/>
<path d="M102.308 240.056H104.649C107.224 240.056 108.707 241.69 108.707 243.792C108.707 245.894 107.146 247.528 104.649 247.528H102.308V240.056ZM104.103 241.457V246.049H104.649C106.132 246.049 106.912 245.115 106.912 243.792C106.912 242.469 106.132 241.535 104.649 241.535H104.103V241.457Z" fill="#7FB539"/>
<path d="M109.721 240.056H112.375C114.325 240.056 115.418 241.145 115.418 242.391C115.418 243.636 114.95 243.948 114.169 244.415L115.886 247.528H113.935L112.453 244.804H111.594V247.528H109.799V240.056H109.721ZM111.516 241.457V243.325H112.375C113.233 243.325 113.623 243.091 113.623 242.391C113.623 241.69 113.233 241.457 112.375 241.457H111.516Z" fill="#7FB539"/>
<path d="M116.589 247.528V240.056H121.427V241.535H118.383V243.014H121.193V244.493H118.383V246.127H121.427V247.606H116.589V247.528Z" fill="#7FB539"/>
<path d="M124.705 243.636L124.236 242.936V247.528H122.441V240.056H124.002L126.89 243.948L127.358 244.726V240.056H129.153V247.528H127.592L124.627 243.636H124.705Z" fill="#7FB539"/>
<path d="M130.635 240.056H131.962V242.624H130.713V240.056H130.635Z" fill="#7FB539"/>
<path d="M133.523 245.739C134.069 245.894 134.615 246.05 135.318 246.05C136.02 246.05 136.332 245.894 136.332 245.427C136.332 244.96 136.02 244.805 135.084 244.415C133.913 243.948 133.211 243.248 133.211 242.236C133.211 240.679 134.537 239.979 136.02 239.979C137.503 239.979 137.425 240.134 138.127 240.446L137.815 241.847C137.269 241.691 136.722 241.535 136.02 241.535C135.318 241.535 135.162 241.769 135.162 242.158C135.162 242.547 135.552 242.781 136.332 243.17C137.581 243.637 138.283 244.338 138.283 245.349C138.283 246.984 136.878 247.685 135.396 247.685C133.913 247.685 133.991 247.529 133.289 247.218L133.601 245.816L133.523 245.739Z" fill="#7FB539"/>
<path d="M141.483 245.739C142.029 245.894 142.575 246.05 143.278 246.05C143.98 246.05 144.292 245.894 144.292 245.427C144.292 244.96 143.98 244.805 143.043 244.415C141.873 243.948 141.171 243.248 141.171 242.236C141.171 240.679 142.497 239.979 143.98 239.979C145.463 239.979 145.385 240.134 146.087 240.446L145.775 241.847C145.229 241.691 144.682 241.535 143.98 241.535C143.278 241.535 143.121 241.769 143.121 242.158C143.121 242.547 143.512 242.781 144.292 243.17C145.541 243.637 146.243 244.338 146.243 245.349C146.243 246.984 144.838 247.685 143.356 247.685C141.873 247.685 141.951 247.529 141.249 247.218L141.561 245.816L141.483 245.739Z" fill="#7FB539"/>
<path d="M147.179 247.528V240.056H152.018V241.535H148.974V243.014H151.784V244.493H148.974V246.127H152.018V247.606H147.179V247.528Z" fill="#7FB539"/>
<path d="M153.032 240.056H155.686C157.637 240.056 158.729 241.145 158.729 242.391C158.729 243.636 158.261 243.948 157.481 244.415L159.197 247.528H157.246L155.764 244.804H154.905V247.528H153.11V240.056H153.032ZM154.827 241.457V243.325H155.686C156.544 243.325 156.934 243.091 156.934 242.391C156.934 241.69 156.544 241.457 155.686 241.457H154.827Z" fill="#7FB539"/>
<path d="M162.865 244.96L163.021 245.583L163.177 244.96L164.816 239.979H166.767L164.114 247.451H162.007L159.353 239.979H161.304L162.943 244.96H162.865Z" fill="#7FB539"/>
<path d="M167.625 240.056H169.42V247.528H167.625V240.056Z" fill="#7FB539"/>
<path d="M174.415 246.128C174.961 246.128 175.429 246.128 175.897 245.894L176.21 247.295C175.585 247.529 175.039 247.607 174.415 247.607C172.152 247.607 170.435 245.972 170.435 243.793C170.435 241.613 172.152 239.979 174.415 239.979C176.678 239.979 175.663 239.979 176.21 240.29L175.897 241.691C175.507 241.535 174.961 241.457 174.415 241.457C173.166 241.457 172.23 242.469 172.23 243.87C172.23 245.272 173.166 246.283 174.415 246.283V246.128Z" fill="#7FB539"/>
<path d="M176.99 247.528V240.056H181.828V241.535H178.785V243.014H181.594V244.493H178.785V246.127H181.828V247.606H176.99V247.528Z" fill="#7FB539"/>
<path d="M182.999 245.739C183.545 245.894 184.091 246.05 184.794 246.05C185.496 246.05 185.808 245.894 185.808 245.427C185.808 244.96 185.496 244.805 184.56 244.415C183.389 243.948 182.687 243.248 182.687 242.236C182.687 240.679 184.013 239.979 185.496 239.979C186.979 239.979 186.901 240.134 187.603 240.446L187.291 241.847C186.745 241.691 186.198 241.535 185.496 241.535C184.794 241.535 184.638 241.769 184.638 242.158C184.638 242.547 185.028 242.781 185.808 243.17C187.057 243.637 187.759 244.338 187.759 245.349C187.759 246.984 186.354 247.685 184.872 247.685C183.389 247.685 183.467 247.529 182.765 247.218L183.077 245.816L182.999 245.739Z" fill="#7FB539"/>
</svg>
